<?xml version="1.0" encoding="UTF-8"?>
<!DOCTYPE svg PUBLIC "-//W3C//DTD SVG 1.1//EN" "http://www.w3.org/Graphics/SVG/1.1/DTD/svg11.dtd">
<svg xmlns="http://www.w3.org/2000/svg" version="1.1" width="200px" height="200px" style="shape-rendering:geometricPrecision; text-rendering:geometricPrecision; image-rendering:optimizeQuality; fill-rule:evenodd; clip-rule:evenodd" xmlns:xlink="http://www.w3.org/1999/xlink">
<g><path style="opacity:1" fill="#24232b" d="M 117.5,25.5 C 118.833,29.1667 118.833,32.8333 117.5,36.5C 116.417,36.5394 115.417,36.8728 114.5,37.5C 109.829,33.492 104.495,30.8254 98.5,29.5C 96.815,25.7471 97.815,22.9137 101.5,21C 104.5,20.3333 107.5,20.3333 110.5,21C 112.734,22.7498 115.068,24.2498 117.5,25.5 Z"/></g>
<g><path style="opacity:0.035" fill="#565658" d="M 117.5,25.5 C 115.068,24.2498 112.734,22.7498 110.5,21C 107.5,20.3333 104.5,20.3333 101.5,21C 97.815,22.9137 96.815,25.7471 98.5,29.5C 97.1001,28.9002 96.1001,27.9002 95.5,26.5C 96.8947,20.7786 100.561,18.1119 106.5,18.5C 111.973,18.0664 115.64,20.3997 117.5,25.5 Z"/></g>
<g><path style="opacity:1" fill="#ebf2d2" d="M 95.5,26.5 C 96.1001,27.9002 97.1001,28.9002 98.5,29.5C 104.495,30.8254 109.829,33.492 114.5,37.5C 115.417,36.8728 116.417,36.5394 117.5,36.5C 117.491,38.3084 117.991,39.9751 119,41.5C 126.328,50.1707 133.161,59.1707 139.5,68.5C 139.631,69.2389 139.464,69.9056 139,70.5C 134.445,66.9744 129.278,65.3077 123.5,65.5C 123.998,61.7806 123.164,58.4473 121,55.5C 124.396,66.8991 120.896,75.7324 110.5,82C 106.376,84.3972 102.043,86.2306 97.5,87.5C 93.5341,88.1621 89.5341,88.4955 85.5,88.5C 88.1511,81.021 86.8178,80.521 81.5,87C 80.2068,87.49 78.8734,87.6567 77.5,87.5C 77.1667,87.5 76.8333,87.5 76.5,87.5C 78.8333,84.8333 81.1667,82.1667 83.5,79.5C 87.8284,79.9634 91.8284,79.1301 95.5,77C 91.965,78.4252 89.6317,77.2586 88.5,73.5C 90.7337,71.6187 92.067,69.2853 92.5,66.5C 88.5639,66.4782 84.8973,67.4782 81.5,69.5C 80.4173,70.365 80.2506,71.365 81,72.5C 84.9787,72.6985 87.812,74.5318 89.5,78C 87.5273,78.4955 85.5273,78.6621 83.5,78.5C 81.4166,77.9711 79.5833,76.9711 78,75.5C 77.3828,76.4491 77.5494,77.2825 78.5,78C 75.3331,80.2225 72.4998,82.7225 70,85.5C 66.121,83.9926 62.9544,81.6593 60.5,78.5C 60.1667,77.1667 59.8333,75.8333 59.5,74.5C 58.9097,68.0337 58.243,61.7004 57.5,55.5C 57.5,55.1667 57.5,54.8333 57.5,54.5C 58.404,53.791 58.7373,52.791 58.5,51.5C 62.6617,44.521 67.3283,37.8543 72.5,31.5C 79.9349,27.7706 87.6016,26.104 95.5,26.5 Z"/></g>
<g><path style="opacity:0.979" fill="#18ac60" d="M 56.5,33.5 C 56.5,33.8333 56.5,34.1667 56.5,34.5C 55.6236,34.3691 54.9569,34.7025 54.5,35.5C 53.5682,37.7954 52.7348,40.1287 52,42.5C 51.5007,37.5111 51.3341,32.5111 51.5,27.5C 50.1779,27.33 49.0113,27.6634 48,28.5C 46.3362,33.4565 46.0029,38.4565 47,43.5C 46.1934,40.0267 44.0268,37.86 40.5,37C 38.4565,35.292 36.7899,33.292 35.5,31C 32.9107,29.6859 30.2441,29.0192 27.5,29C 33.3566,31.5974 38.0233,35.5974 41.5,41C 41.2517,42.7491 40.2517,43.5824 38.5,43.5C 31.4033,41.578 26.2367,37.2447 23,30.5C 20.961,28.1255 18.6277,26.1255 16,24.5C 15.5172,23.552 15.3505,22.552 15.5,21.5C 22.3713,22.0509 29.0379,23.5509 35.5,26C 39.3333,28.5 42.5,31.6667 45,35.5C 45.5796,27.2348 48.7462,20.2348 54.5,14.5C 53.9395,21.0087 54.6061,27.342 56.5,33.5 Z"/></g>
<g><path style="opacity:1" fill="#23242b" d="M 72.5,31.5 C 67.3283,37.8543 62.6617,44.521 58.5,51.5C 56.1097,50.1092 54.4431,48.1092 53.5,45.5C 54.3863,41.9167 55.3863,38.25 56.5,34.5C 56.5,34.1667 56.5,33.8333 56.5,33.5C 57.343,31.8267 58.6763,30.66 60.5,30C 64.7314,29.0805 68.7314,29.5805 72.5,31.5 Z"/></g>
<g><path style="opacity:0.992" fill="#169454" d="M 56.5,34.5 C 55.3863,38.25 54.3863,41.9167 53.5,45.5C 53.0307,44.2546 52.6974,44.4213 52.5,46C 53.0439,47.585 53.7106,49.085 54.5,50.5C 53.8826,50.6107 53.3826,50.944 53,51.5C 52.8032,49.1391 51.6365,47.4724 49.5,46.5C 49.0509,49.0436 49.0509,51.7102 49.5,54.5C 48.7784,54.0825 48.2784,53.4158 48,52.5C 47.3378,53.9839 46.5045,55.3172 45.5,56.5C 44.2749,56.0311 43.2749,56.6978 42.5,58.5C 43.1272,59.4168 43.4606,60.4168 43.5,61.5C 42.2513,64.0873 41.2513,66.754 40.5,69.5C 40.7852,67.712 40.4519,66.0453 39.5,64.5C 38.914,64.7093 38.414,65.0426 38,65.5C 36.2102,70.4129 33.8769,75.0796 31,79.5C 30.3333,78.1667 30.3333,76.8333 31,75.5C 32.935,70.5273 34.7684,65.5273 36.5,60.5C 36.3764,59.8933 36.0431,59.56 35.5,59.5C 35.5,59.1667 35.5,58.8333 35.5,58.5C 36.1667,58.5 36.5,58.1667 36.5,57.5C 37.6879,56.3157 38.8545,56.3157 40,57.5C 40.2511,55.567 40.7511,53.7337 41.5,52C 41.1667,51.8333 40.8333,51.6667 40.5,51.5C 34.7782,53.6942 29.4448,56.3608 24.5,59.5C 24.3398,57.8008 24.5065,56.1341 25,54.5C 27.7821,52.2295 29.9488,49.5628 31.5,46.5C 33.8546,45.3414 36.1879,44.3414 38.5,43.5C 40.2517,43.5824 41.2517,42.7491 41.5,41C 38.0233,35.5974 33.3566,31.5974 27.5,29C 30.2441,29.0192 32.9107,29.6859 35.5,31C 36.7899,33.292 38.4565,35.292 40.5,37C 44.0268,37.86 46.1934,40.0267 47,43.5C 46.0029,38.4565 46.3362,33.4565 48,28.5C 49.0113,27.6634 50.1779,27.33 51.5,27.5C 51.3341,32.5111 51.5007,37.5111 52,42.5C 52.7348,40.1287 53.5682,37.7954 54.5,35.5C 54.9569,34.7025 55.6236,34.3691 56.5,34.5 Z"/></g>
<g><path style="opacity:1" fill="#222329" d="M 92.5,42.5 C 94.1992,42.3398 95.8659,42.5065 97.5,43C 101.496,47.0137 105.996,50.1804 111,52.5C 112.663,61.1671 109.163,65.0005 100.5,64C 91.77,60.0291 88.27,53.5291 90,44.5C 90.9947,43.9341 91.828,43.2674 92.5,42.5 Z"/></g>
<g><path style="opacity:1" fill="#dbe0cf" d="M 95.5,51.5 C 99.2518,51.5007 100.252,53.1674 98.5,56.5C 96.244,55.5791 95.244,53.9124 95.5,51.5 Z"/></g>
<g><path style="opacity:1" fill="#222127" d="M 68.5,49.5 C 75.5186,48.0226 78.5186,50.8559 77.5,58C 77.5053,62.8126 76.3386,67.3126 74,71.5C 67.6351,76.4573 63.4684,74.9573 61.5,67C 64.2384,61.3236 66.5717,55.4903 68.5,49.5 Z"/></g>
<g><path style="opacity:1" fill="#d3d7c6" d="M 70.5,58.5 C 71.5,58.5 72.5,58.5 73.5,58.5C 73.8841,60.6648 73.2174,62.3315 71.5,63.5C 69.2957,62.218 68.9624,60.5514 70.5,58.5 Z"/></g>
<g><path style="opacity:0.987" fill="#16af61" d="M 31.5,46.5 C 29.9488,49.5628 27.7821,52.2295 25,54.5C 24.5065,56.1341 24.3398,57.8008 24.5,59.5C 29.4448,56.3608 34.7782,53.6942 40.5,51.5C 40.8333,51.6667 41.1667,51.8333 41.5,52C 40.7511,53.7337 40.2511,55.567 40,57.5C 38.8545,56.3157 37.6879,56.3157 36.5,57.5C 35.8333,57.5 35.5,57.8333 35.5,58.5C 27.5977,62.0667 21.5977,67.7334 17.5,75.5C 16.675,76.3857 15.675,76.719 14.5,76.5C 16.0306,64.1002 21.6973,54.1002 31.5,46.5 Z"/></g>
<g><path style="opacity:1" fill="#8ed7a2" d="M 57.5,55.5 C 58.243,61.7004 58.9097,68.0337 59.5,74.5C 57.8684,74.1753 56.8684,73.1753 56.5,71.5C 57.4017,66.2092 57.735,60.8758 57.5,55.5 Z"/></g>
<g><path style="opacity:1" fill="#303330" d="M 83.5,79.5 C 83.5,79.1667 83.5,78.8333 83.5,78.5C 85.5273,78.6621 87.5273,78.4955 89.5,78C 87.812,74.5318 84.9787,72.6985 81,72.5C 80.2506,71.365 80.4173,70.365 81.5,69.5C 84.8973,67.4782 88.5639,66.4782 92.5,66.5C 92.067,69.2853 90.7337,71.6187 88.5,73.5C 89.6317,77.2586 91.965,78.4252 95.5,77C 91.8284,79.1301 87.8284,79.9634 83.5,79.5 Z"/></g>
<g><path style="opacity:1" fill="#4e533e" d="M 97.5,69.5 C 97.56,68.9569 97.8933,68.6236 98.5,68.5C 99.8353,70.6472 99.6686,72.6472 98,74.5C 98.4759,72.6799 98.3093,71.0133 97.5,69.5 Z"/></g>
<g><path style="opacity:1" fill="#222129" d="M 139.5,68.5 C 148.056,78.4779 152.722,90.1445 153.5,103.5C 152.778,103.082 152.278,102.416 152,101.5C 152.795,111.762 148.295,118.262 138.5,121C 134.914,122.108 131.247,122.608 127.5,122.5C 127.798,119.664 127.131,119.164 125.5,121C 123.19,121.497 120.857,121.663 118.5,121.5C 114.463,120.935 110.797,119.601 107.5,117.5C 112.442,117.704 116.442,118.704 119.5,120.5C 119.5,119.167 119.5,117.833 119.5,116.5C 126.384,115.306 133.218,115.306 140,116.5C 143.621,114.944 146.788,112.777 149.5,110C 145.203,106.909 144.537,103.242 147.5,99C 147,98.5 146.5,98 146,97.5C 145.502,94.1832 145.335,90.8499 145.5,87.5C 142.167,87.5 138.833,87.5 135.5,87.5C 135.5,84.1667 135.5,80.8333 135.5,77.5C 132.753,77.1866 130.086,77.52 127.5,78.5C 128.48,79.9814 129.647,81.3147 131,82.5C 131.098,85.8854 132.598,88.2187 135.5,89.5C 130.938,88.8475 127.938,90.6808 126.5,95C 122.789,95.8253 119.122,95.6586 115.5,94.5C 117.62,92.7281 119.287,90.7281 120.5,88.5C 121.8,87.399 122.3,86.0657 122,84.5C 120.048,86.8936 117.548,88.3936 114.5,89C 110.848,89.4986 107.182,89.6653 103.5,89.5C 101.5,88.8333 99.5,88.1667 97.5,87.5C 102.043,86.2306 106.376,84.3972 110.5,82C 120.896,75.7324 124.396,66.8991 121,55.5C 123.164,58.4473 123.998,61.7806 123.5,65.5C 129.278,65.3077 134.445,66.9744 139,70.5C 139.464,69.9056 139.631,69.2389 139.5,68.5 Z"/></g>
<g><path style="opacity:1" fill="#1e1e29" d="M 107.5,117.5 C 107.662,115.473 107.495,113.473 107,111.5C 104.667,111.5 102.333,111.5 100,111.5C 98.8989,113.394 97.5655,114.061 96,113.5C 94.979,108.674 94.479,103.841 94.5,99C 95.2638,96.9307 95.7638,94.764 96,92.5C 97,96.5 98,96.5 99,92.5C 99.4828,93.448 99.6495,94.448 99.5,95.5C 100.833,95.5 102.167,95.5 103.5,95.5C 103.5,98.1667 103.5,100.833 103.5,103.5C 109.406,102.195 112.239,104.528 112,110.5C 113.788,107.404 116.288,106.737 119.5,108.5C 119.5,106.833 119.5,105.167 119.5,103.5C 124.833,103.5 130.167,103.5 135.5,103.5C 135.5,98.8333 135.5,94.1667 135.5,89.5C 132.598,88.2187 131.098,85.8854 131,82.5C 129.647,81.3147 128.48,79.9814 127.5,78.5C 130.086,77.52 132.753,77.1866 135.5,77.5C 135.5,80.8333 135.5,84.1667 135.5,87.5C 138.833,87.5 142.167,87.5 145.5,87.5C 145.335,90.8499 145.502,94.1832 146,97.5C 146.5,98 147,98.5 147.5,99C 144.537,103.242 145.203,106.909 149.5,110C 146.788,112.777 143.621,114.944 140,116.5C 133.218,115.306 126.384,115.306 119.5,116.5C 119.5,117.833 119.5,119.167 119.5,120.5C 116.442,118.704 112.442,117.704 107.5,117.5 Z"/></g>
<g><path style="opacity:1" fill="#1d9f5b" d="M 60.5,78.5 C 62.9544,81.6593 66.121,83.9926 70,85.5C 72.4998,82.7225 75.3331,80.2225 78.5,78C 77.5494,77.2825 77.3828,76.4491 78,75.5C 79.5833,76.9711 81.4166,77.9711 83.5,78.5C 83.5,78.8333 83.5,79.1667 83.5,79.5C 81.1667,82.1667 78.8333,84.8333 76.5,87.5C 72.1197,90.0683 71.453,93.4016 74.5,97.5C 76.5299,94.9039 78.1966,92.0706 79.5,89C 78.5842,88.7216 77.9175,88.2216 77.5,87.5C 78.8734,87.6567 80.2068,87.49 81.5,87C 86.8178,80.521 88.1511,81.021 85.5,88.5C 84.0665,89.8333 82.7332,91.3333 81.5,93C 84.2263,93.1816 86.8929,93.6816 89.5,94.5C 86.6513,96.9399 84.9846,99.6066 84.5,102.5C 82.9505,103.441 81.2838,104.107 79.5,104.5C 75.7422,101.459 71.4088,99.7922 66.5,99.5C 66.5,98.8333 66.1667,98.5 65.5,98.5C 65.4725,95.0836 64.4725,92.0836 62.5,89.5C 62.6495,88.448 62.4828,87.448 62,86.5C 59.6506,89.0168 57.1506,91.3501 54.5,93.5C 53.7061,89.9079 55.0394,87.0746 58.5,85C 55.9067,85.5465 53.7401,87.0465 52,89.5C 47.9098,97.2516 45.5765,105.585 45,114.5C 44.0551,110.886 43.3884,107.219 43,103.5C 40.3951,109.158 37.8951,114.825 35.5,120.5C 34.8614,119.903 34.528,119.07 34.5,118C 35.4451,112.833 35.9451,107.667 36,102.5C 34.5295,104.872 33.3628,104.872 32.5,102.5C 34.3992,97.7031 37.0658,93.3698 40.5,89.5C 40.2907,88.914 39.9574,88.414 39.5,88C 41.5977,85.146 43.931,82.4794 46.5,80C 45.5842,79.7216 44.9175,79.2216 44.5,78.5C 45.5498,78.0954 45.5498,77.4288 44.5,76.5C 49.1071,74.9932 53.4404,75.4932 57.5,78C 56.0494,77.7374 54.7161,77.9041 53.5,78.5C 54.2421,79.2868 55.0754,79.9535 56,80.5C 57.3297,79.4178 58.8297,78.7512 60.5,78.5 Z"/></g>
<g><path style="opacity:1" fill="#15aa5e" d="M 54.5,50.5 C 55.5,51.8333 56.5,53.1667 57.5,54.5C 57.5,54.8333 57.5,55.1667 57.5,55.5C 57.735,60.8758 57.4017,66.2092 56.5,71.5C 56.8684,73.1753 57.8684,74.1753 59.5,74.5C 59.8333,75.8333 60.1667,77.1667 60.5,78.5C 58.8297,78.7512 57.3297,79.4178 56,80.5C 55.0754,79.9535 54.2421,79.2868 53.5,78.5C 54.7161,77.9041 56.0494,77.7374 57.5,78C 53.4404,75.4932 49.1071,74.9932 44.5,76.5C 45.5498,77.4288 45.5498,78.0954 44.5,78.5C 42.9397,78.5191 41.4397,78.8524 40,79.5C 39.0546,79.0946 38.3879,78.428 38,77.5C 32.0014,84.74 29.8347,93.0733 31.5,102.5C 28.6118,102.78 27.1118,101.447 27,98.5C 23.7786,85.784 25.4453,73.784 32,62.5C 33.0391,61.2899 34.2058,60.2899 35.5,59.5C 36.0431,59.56 36.3764,59.8933 36.5,60.5C 34.7684,65.5273 32.935,70.5273 31,75.5C 30.3333,76.8333 30.3333,78.1667 31,79.5C 33.8769,75.0796 36.2102,70.4129 38,65.5C 38.414,65.0426 38.914,64.7093 39.5,64.5C 40.4519,66.0453 40.7852,67.712 40.5,69.5C 41.1522,70.7251 42.3189,71.3917 44,71.5C 45.1667,71.3333 46.3333,71.1667 47.5,71C 45.4672,68.1041 44.1338,64.9374 43.5,61.5C 43.4606,60.4168 43.1272,59.4168 42.5,58.5C 43.2749,56.6978 44.2749,56.0311 45.5,56.5C 47.4628,57.9599 49.2962,59.6266 51,61.5C 50.8429,59.1693 50.3429,56.8359 49.5,54.5C 49.0509,51.7102 49.0509,49.0436 49.5,46.5C 51.6365,47.4724 52.8032,49.1391 53,51.5C 53.3826,50.944 53.8826,50.6107 54.5,50.5 Z M 43.5,61.5 C 44.1338,64.9374 45.4672,68.1041 47.5,71C 46.3333,71.1667 45.1667,71.3333 44,71.5C 42.3189,71.3917 41.1522,70.7251 40.5,69.5C 41.2513,66.754 42.2513,64.0873 43.5,61.5 Z"/></g>
<g><path style="opacity:1" fill="#8b8f8e" d="M 120.5,88.5 C 110.801,89.7992 101.134,91.1326 91.5,92.5C 90.2617,92.19 90.2617,91.69 91.5,91C 95.3951,89.7338 99.3951,89.2338 103.5,89.5C 107.182,89.6653 110.848,89.4986 114.5,89C 117.548,88.3936 120.048,86.8936 122,84.5C 122.3,86.0657 121.8,87.399 120.5,88.5 Z"/></g>
<g><path style="opacity:1" fill="#1f2128" d="M 120.5,88.5 C 119.287,90.7281 117.62,92.7281 115.5,94.5C 119.122,95.6586 122.789,95.8253 126.5,95C 127.938,90.6808 130.938,88.8475 135.5,89.5C 135.5,94.1667 135.5,98.8333 135.5,103.5C 130.167,103.5 124.833,103.5 119.5,103.5C 119.5,105.167 119.5,106.833 119.5,108.5C 116.288,106.737 113.788,107.404 112,110.5C 112.239,104.528 109.406,102.195 103.5,103.5C 103.5,100.833 103.5,98.1667 103.5,95.5C 102.167,95.5 100.833,95.5 99.5,95.5C 99.6495,94.448 99.4828,93.448 99,92.5C 98,96.5 97,96.5 96,92.5C 95.7638,94.764 95.2638,96.9307 94.5,99C 94.479,103.841 94.979,108.674 96,113.5C 97.5655,114.061 98.8989,113.394 100,111.5C 102.333,111.5 104.667,111.5 107,111.5C 107.495,113.473 107.662,115.473 107.5,117.5C 104.923,116.626 102.423,115.626 100,114.5C 96.8611,115.426 93.6944,115.592 90.5,115C 89.252,113.6 88.252,112.1 87.5,110.5C 87.0502,106.776 88.7168,104.609 92.5,104C 89.9211,102.271 89.9211,100.438 92.5,98.5C 90.4537,96.719 90.1204,94.719 91.5,92.5C 101.134,91.1326 110.801,89.7992 120.5,88.5 Z"/></g>
<g><path style="opacity:1" fill="#283430" d="M 97.5,87.5 C 99.5,88.1667 101.5,88.8333 103.5,89.5C 99.3951,89.2338 95.3951,89.7338 91.5,91C 90.2617,91.69 90.2617,92.19 91.5,92.5C 90.1204,94.719 90.4537,96.719 92.5,98.5C 89.9211,100.438 89.9211,102.271 92.5,104C 88.7168,104.609 87.0502,106.776 87.5,110.5C 85.6197,108.245 84.6197,105.578 84.5,102.5C 84.9846,99.6066 86.6513,96.9399 89.5,94.5C 86.8929,93.6816 84.2263,93.1816 81.5,93C 82.7332,91.3333 84.0665,89.8333 85.5,88.5C 89.5341,88.4955 93.5341,88.1621 97.5,87.5 Z"/></g>
<g><path style="opacity:1" fill="#132921" d="M 76.5,87.5 C 76.8333,87.5 77.1667,87.5 77.5,87.5C 77.9175,88.2216 78.5842,88.7216 79.5,89C 78.1966,92.0706 76.5299,94.9039 74.5,97.5C 71.453,93.4016 72.1197,90.0683 76.5,87.5 Z"/></g>
<g><path style="opacity:1" fill="#88928c" d="M 65.5,98.5 C 66.1667,98.5 66.5,98.8333 66.5,99.5C 61.736,99.7002 57.0694,100.2 52.5,101C 56.6205,99.1015 60.9538,98.2681 65.5,98.5 Z"/></g>
<g><path style="opacity:1" fill="#8e958d" d="M 79.5,105.5 C 80.404,106.209 80.7373,107.209 80.5,108.5C 76.2866,106.54 71.9533,106.04 67.5,107C 71.5524,105.617 75.5524,105.117 79.5,105.5 Z"/></g>
<g><path style="opacity:1" fill="#5f6660" d="M 80.5,108.5 C 81.404,109.209 81.7373,110.209 81.5,111.5C 77.6215,111.371 73.6215,111.537 69.5,112C 72.3259,109.435 75.4926,108.935 79,110.5C 80.0299,110.164 80.5299,109.497 80.5,108.5 Z"/></g>
<g><path style="opacity:1" fill="#eaf5d3" d="M 84.5,102.5 C 84.6197,105.578 85.6197,108.245 87.5,110.5C 88.252,112.1 89.252,113.6 90.5,115C 93.6944,115.592 96.8611,115.426 100,114.5C 102.423,115.626 104.923,116.626 107.5,117.5C 110.797,119.601 114.463,120.935 118.5,121.5C 120.167,122.167 121.833,122.833 123.5,123.5C 119.759,127.888 117.426,132.888 116.5,138.5C 114.292,139.894 112.792,141.894 112,144.5C 110.368,148.032 109.201,151.699 108.5,155.5C 105.385,157.288 103.385,159.954 102.5,163.5C 102.167,163.5 101.833,163.5 101.5,163.5C 101.5,162.833 101.5,162.167 101.5,161.5C 103.213,154.94 103.713,148.273 103,141.5C 96.4996,131.919 95.4996,132.252 100,142.5C 100.667,145.167 100.667,147.833 100,150.5C 98.609,147.211 96.4423,145.544 93.5,145.5C 96.2381,150.735 98.5714,156.068 100.5,161.5C 100.5,164.833 100.5,168.167 100.5,171.5C 99.6236,171.631 98.9569,171.298 98.5,170.5C 91.9184,153.344 85.9184,136.01 80.5,118.5C 81.4682,116.393 81.8016,114.059 81.5,111.5C 81.7373,110.209 81.404,109.209 80.5,108.5C 80.7373,107.209 80.404,106.209 79.5,105.5C 79.5,105.167 79.5,104.833 79.5,104.5C 81.2838,104.107 82.9505,103.441 84.5,102.5 Z"/></g>
<g><path style="opacity:1" fill="#e5f1cf" d="M 153.5,103.5 C 156.945,114.412 159.612,125.412 161.5,136.5C 161.741,138.898 161.074,140.898 159.5,142.5C 156.777,137.444 152.777,133.777 147.5,131.5C 144.851,129.891 141.851,129.057 138.5,129C 141.64,127.284 144.973,125.951 148.5,125C 139.939,123.779 132.105,125.612 125,130.5C 124.761,128.041 125.261,125.707 126.5,123.5C 126.5,122.833 126.833,122.5 127.5,122.5C 131.247,122.608 134.914,122.108 138.5,121C 148.295,118.262 152.795,111.762 152,101.5C 152.278,102.416 152.778,103.082 153.5,103.5 Z"/></g>
<g><path style="opacity:1" fill="#172e26" d="M 62.5,89.5 C 59.5927,90.7341 57.2593,92.7341 55.5,95.5C 53.9547,96.4519 52.288,96.7852 50.5,96.5C 48.9001,101.612 48.0668,106.945 48,112.5C 47.0718,115.035 45.2385,116.035 42.5,115.5C 42.6621,113.473 42.4955,111.473 42,109.5C 40.1918,112.353 40.0251,115.353 41.5,118.5C 40.5089,119.665 39.5089,120.832 38.5,122C 39.2335,123.766 39.5668,125.599 39.5,127.5C 38.1667,125.167 36.8333,122.833 35.5,120.5C 37.8951,114.825 40.3951,109.158 43,103.5C 43.3884,107.219 44.0551,110.886 45,114.5C 45.5765,105.585 47.9098,97.2516 52,89.5C 53.7401,87.0465 55.9067,85.5465 58.5,85C 55.0394,87.0746 53.7061,89.9079 54.5,93.5C 57.1506,91.3501 59.6506,89.0168 62,86.5C 62.4828,87.448 62.6495,88.448 62.5,89.5 Z"/></g>
<g><path style="opacity:1" fill="#49805d" d="M 127.5,122.5 C 126.833,122.5 126.5,122.833 126.5,123.5C 125.5,123.5 124.5,123.5 123.5,123.5C 121.833,122.833 120.167,122.167 118.5,121.5C 120.857,121.663 123.19,121.497 125.5,121C 127.131,119.164 127.798,119.664 127.5,122.5 Z"/></g>
<g><path style="opacity:1" fill="#97928e" d="M 67.5,124.5 C 67.5,126.5 67.5,128.5 67.5,130.5C 65.5742,131.242 63.7409,132.242 62,133.5C 61.8499,129.446 63.6832,126.446 67.5,124.5 Z"/></g>
<g><path style="opacity:1" fill="#e6f3d1" d="M 74.5,122.5 C 77.8533,136.58 81.52,150.58 85.5,164.5C 82.5251,163.345 79.8584,161.678 77.5,159.5C 70.9945,150.985 67.6612,141.319 67.5,130.5C 67.5,128.5 67.5,126.5 67.5,124.5C 69.7014,123.434 72.0347,122.767 74.5,122.5 Z"/></g>
<g><path style="opacity:1" fill="#26a861" d="M 123.5,123.5 C 124.5,123.5 125.5,123.5 126.5,123.5C 125.261,125.707 124.761,128.041 125,130.5C 132.105,125.612 139.939,123.779 148.5,125C 144.973,125.951 141.64,127.284 138.5,129C 141.851,129.057 144.851,129.891 147.5,131.5C 140.091,131.683 134.091,132.35 129.5,133.5C 129.577,134.75 130.244,135.583 131.5,136C 128.854,136.497 126.187,136.664 123.5,136.5C 123.5,137.5 123.5,138.5 123.5,139.5C 121.833,139.5 120.167,139.5 118.5,139.5C 117.833,139.5 117.167,139.5 116.5,139.5C 116.5,139.167 116.5,138.833 116.5,138.5C 117.426,132.888 119.759,127.888 123.5,123.5 Z"/></g>
<g><path style="opacity:1" fill="#1f2228" d="M 147.5,131.5 C 152.777,133.777 156.777,137.444 159.5,142.5C 159.5,142.833 159.5,143.167 159.5,143.5C 159.674,145.861 160.007,148.194 160.5,150.5C 159.883,150.389 159.383,150.056 159,149.5C 158.846,145.902 157.846,142.569 156,139.5C 152.915,138.861 149.415,138.861 145.5,139.5C 145.223,142.448 145.556,145.281 146.5,148C 143.873,150.017 141.373,149.85 139,147.5C 136.151,148.522 133.651,149.856 131.5,151.5C 131.631,152.376 131.298,153.043 130.5,153.5C 126.125,152.167 121.791,150.834 117.5,149.5C 116,149.453 115,150.119 114.5,151.5C 117.516,151.406 120.516,152.072 123.5,153.5C 123.117,156.462 124.117,157.462 126.5,156.5C 127.647,158.765 127.814,161.098 127,163.5C 124.544,161.679 121.711,161.012 118.5,161.5C 120.476,159.989 122.809,159.156 125.5,159C 123.63,157.634 121.63,156.467 119.5,155.5C 117.259,156.129 115.259,157.129 113.5,158.5C 111.824,159.183 111.157,160.517 111.5,162.5C 108.833,162.833 106.167,163.167 103.5,163.5C 103.5,164.5 103.5,165.5 103.5,166.5C 103.631,167.239 103.464,167.906 103,168.5C 102.506,166.866 102.34,165.199 102.5,163.5C 103.385,159.954 105.385,157.288 108.5,155.5C 111.127,156.396 113.794,156.23 116.5,155C 114.563,154.878 113.23,154.045 112.5,152.5C 113.954,148.259 115.954,144.259 118.5,140.5C 120.488,140.827 122.488,141.16 124.5,141.5C 125.5,141.167 126.5,140.833 127.5,140.5C 123.519,138.4 123.685,137.4 128,137.5C 139.9,140.433 140.4,139.1 129.5,133.5C 134.091,132.35 140.091,131.683 147.5,131.5 Z"/></g>
<g><path style="opacity:1" fill="#1e1d29" d="M 160.5,150.5 C 160.5,153.167 160.5,155.833 160.5,158.5C 159.532,156.393 159.198,154.059 159.5,151.5C 158.167,151.5 156.833,151.5 155.5,151.5C 155.5,156.833 155.5,162.167 155.5,167.5C 152.315,167.722 151.315,169.222 152.5,172C 150.899,172.273 149.399,172.773 148,173.5C 147.517,172.552 147.351,171.552 147.5,170.5C 146.167,170.5 144.833,170.5 143.5,170.5C 143.286,172.144 143.62,173.644 144.5,175C 141.993,175.093 139.826,175.926 138,177.5C 137.333,176.833 136.667,176.167 136,175.5C 134.817,176.731 133.651,176.731 132.5,175.5C 133.695,173.249 134.695,170.915 135.5,168.5C 135.731,162.976 135.398,157.31 134.5,151.5C 133.5,151.5 132.5,151.5 131.5,151.5C 133.651,149.856 136.151,148.522 139,147.5C 141.373,149.85 143.873,150.017 146.5,148C 145.556,145.281 145.223,142.448 145.5,139.5C 149.415,138.861 152.915,138.861 156,139.5C 157.846,142.569 158.846,145.902 159,149.5C 159.383,150.056 159.883,150.389 160.5,150.5 Z"/></g>
<g><path style="opacity:1" fill="#298b5b" d="M 129.5,133.5 C 140.4,139.1 139.9,140.433 128,137.5C 123.685,137.4 123.519,138.4 127.5,140.5C 126.5,140.833 125.5,141.167 124.5,141.5C 122.488,141.16 120.488,140.827 118.5,140.5C 118.5,140.167 118.5,139.833 118.5,139.5C 120.167,139.5 121.833,139.5 123.5,139.5C 123.5,138.5 123.5,137.5 123.5,136.5C 126.187,136.664 128.854,136.497 131.5,136C 130.244,135.583 129.577,134.75 129.5,133.5 Z"/></g>
<g><path style="opacity:0.42" fill="#24855b" d="M 35.5,139.5 C 33.8235,140.183 33.1568,141.517 33.5,143.5C 31.6098,141.41 29.9431,139.077 28.5,136.5C 31.769,135.068 34.1023,136.068 35.5,139.5 Z"/></g>
<g><path style="opacity:0.975" fill="#1ba35d" d="M 35.5,139.5 C 38.8605,142.194 41.8605,145.194 44.5,148.5C 44.7989,150.604 44.4656,152.604 43.5,154.5C 40.3211,156.094 36.9878,157.094 33.5,157.5C 31.2369,153.897 28.5703,150.564 25.5,147.5C 25.8076,146.692 26.3076,146.025 27,145.5C 30.2904,146.645 33.2904,148.312 36,150.5C 35.3047,148.256 34.4713,145.922 33.5,143.5C 33.1568,141.517 33.8235,140.183 35.5,139.5 Z"/></g>
<g><path style="opacity:1" fill="#6cab7b" d="M 116.5,138.5 C 116.5,138.833 116.5,139.167 116.5,139.5C 113.499,144.151 111.666,149.151 111,154.5C 111.278,153.584 111.778,152.918 112.5,152.5C 113.23,154.045 114.563,154.878 116.5,155C 113.794,156.23 111.127,156.396 108.5,155.5C 109.201,151.699 110.368,148.032 112,144.5C 112.792,141.894 114.292,139.894 116.5,138.5 Z"/></g>
<g><path style="opacity:1" fill="#c2f0c9" d="M 116.5,139.5 C 117.167,139.5 117.833,139.5 118.5,139.5C 118.5,139.833 118.5,140.167 118.5,140.5C 115.954,144.259 113.954,148.259 112.5,152.5C 111.778,152.918 111.278,153.584 111,154.5C 111.666,149.151 113.499,144.151 116.5,139.5 Z"/></g>
<g><path style="opacity:1" fill="#202028" d="M 62.5,89.5 C 64.4725,92.0836 65.4725,95.0836 65.5,98.5C 60.9538,98.2681 56.6205,99.1015 52.5,101C 57.0694,100.2 61.736,99.7002 66.5,99.5C 71.4088,99.7922 75.7422,101.459 79.5,104.5C 79.5,104.833 79.5,105.167 79.5,105.5C 75.5524,105.117 71.5524,105.617 67.5,107C 71.9533,106.04 76.2866,106.54 80.5,108.5C 80.5299,109.497 80.0299,110.164 79,110.5C 75.4926,108.935 72.3259,109.435 69.5,112C 73.6215,111.537 77.6215,111.371 81.5,111.5C 81.8016,114.059 81.4682,116.393 80.5,118.5C 78.4632,119.846 76.4632,121.18 74.5,122.5C 72.0347,122.767 69.7014,123.434 67.5,124.5C 63.6832,126.446 61.8499,129.446 62,133.5C 63.7409,132.242 65.5742,131.242 67.5,130.5C 67.6612,141.319 70.9945,150.985 77.5,159.5C 77.8588,161.371 78.8588,162.871 80.5,164C 79.552,164.483 78.552,164.649 77.5,164.5C 77.2606,166.467 77.5939,168.301 78.5,170C 76.1667,170.333 73.8333,170.667 71.5,171C 70.8333,173 70.1667,175 69.5,177C 67.1902,177.497 64.8568,177.663 62.5,177.5C 58.6964,164.856 50.6964,161.023 38.5,166C 37.695,167.113 37.0283,168.279 36.5,169.5C 34.7773,167.22 34.1107,164.553 34.5,161.5C 36.1059,160.641 37.7725,160.474 39.5,161C 35.8035,158.586 36.3035,158.086 41,159.5C 41.4561,158.256 40.9561,157.423 39.5,157C 41.7008,156.175 43.5341,156.675 45,158.5C 44.9242,154.643 46.2575,154.643 49,158.5C 49.3087,156.609 48.4753,155.275 46.5,154.5C 45.5344,152.604 45.2011,150.604 45.5,148.5C 47.8762,143.285 51.5428,139.118 56.5,136C 48.8411,136.838 43.1745,134.004 39.5,127.5C 39.5668,125.599 39.2335,123.766 38.5,122C 39.5089,120.832 40.5089,119.665 41.5,118.5C 40.0251,115.353 40.1918,112.353 42,109.5C 42.4955,111.473 42.6621,113.473 42.5,115.5C 45.2385,116.035 47.0718,115.035 48,112.5C 48.0668,106.945 48.9001,101.612 50.5,96.5C 52.288,96.7852 53.9547,96.4519 55.5,95.5C 57.2593,92.7341 59.5927,90.7341 62.5,89.5 Z"/></g>
<g><path style="opacity:1" fill="#22212a" d="M 131.5,151.5 C 132.5,151.5 133.5,151.5 134.5,151.5C 135.398,157.31 135.731,162.976 135.5,168.5C 134.695,170.915 133.695,173.249 132.5,175.5C 133.651,176.731 134.817,176.731 136,175.5C 136.667,176.167 137.333,176.833 138,177.5C 139.826,175.926 141.993,175.093 144.5,175C 143.62,173.644 143.286,172.144 143.5,170.5C 144.833,170.5 146.167,170.5 147.5,170.5C 147.351,171.552 147.517,172.552 148,173.5C 149.399,172.773 150.899,172.273 152.5,172C 151.315,169.222 152.315,167.722 155.5,167.5C 155.5,162.167 155.5,156.833 155.5,151.5C 156.833,151.5 158.167,151.5 159.5,151.5C 159.198,154.059 159.532,156.393 160.5,158.5C 159.539,161.426 158.873,164.426 158.5,167.5C 156.882,169.785 154.882,171.785 152.5,173.5C 151.571,174.689 151.238,176.022 151.5,177.5C 142.962,179.54 134.296,180.54 125.5,180.5C 126.459,174.9 124.459,170.4 119.5,167C 114.186,163.904 108.852,163.738 103.5,166.5C 103.5,165.5 103.5,164.5 103.5,163.5C 106.167,163.167 108.833,162.833 111.5,162.5C 111.157,160.517 111.824,159.183 113.5,158.5C 114.497,159.713 115.497,159.546 116.5,158C 118.167,157.333 119.833,157.333 121.5,158C 119.998,158.583 118.665,159.416 117.5,160.5C 117.624,161.107 117.957,161.44 118.5,161.5C 121.711,161.012 124.544,161.679 127,163.5C 127.814,161.098 127.647,158.765 126.5,156.5C 124.117,157.462 123.117,156.462 123.5,153.5C 120.516,152.072 117.516,151.406 114.5,151.5C 115,150.119 116,149.453 117.5,149.5C 121.791,150.834 126.125,152.167 130.5,153.5C 131.298,153.043 131.631,152.376 131.5,151.5 Z"/></g>
<g><path style="opacity:1" fill="#18a55d" d="M 151.5,177.5 C 151.238,176.022 151.571,174.689 152.5,173.5C 154.882,171.785 156.882,169.785 158.5,167.5C 160.964,163.466 161.964,158.966 161.5,154C 161.333,151.167 161.167,148.333 161,145.5C 160.722,144.584 160.222,143.918 159.5,143.5C 159.5,143.167 159.5,142.833 159.5,142.5C 161.074,140.898 161.741,138.898 161.5,136.5C 164.302,133.524 166.969,130.358 169.5,127C 170.448,126.517 171.448,126.351 172.5,126.5C 171.298,130.578 169.798,134.578 168,138.5C 167.005,141.126 166.672,143.793 167,146.5C 170.436,143.507 174.269,142.507 178.5,143.5C 174.047,147.714 170.047,152.38 166.5,157.5C 170.553,157.602 174.887,157.602 179.5,157.5C 179.719,158.675 179.386,159.675 178.5,160.5C 175.013,161.408 172.013,163.074 169.5,165.5C 176.31,169.716 175.643,172.883 167.5,175C 162.18,175.998 156.847,176.831 151.5,177.5 Z"/></g>
<g><path style="opacity:1" fill="#19a95e" d="M 80.5,118.5 C 85.9184,136.01 91.9184,153.344 98.5,170.5C 98.9569,171.298 99.6236,171.631 100.5,171.5C 102.044,171.703 103.378,172.37 104.5,173.5C 106.62,172.128 107.62,172.795 107.5,175.5C 108.833,175.5 110.167,175.5 111.5,175.5C 111.5,176.5 111.5,177.5 111.5,178.5C 113.993,178.131 114.66,178.797 113.5,180.5C 101.141,180.728 88.8074,180.395 76.5,179.5C 76.4142,178.504 76.7476,177.671 77.5,177C 79.1667,176.667 80.8333,176.333 82.5,176C 82.1667,175.667 81.8333,175.333 81.5,175C 83.9062,173.233 83.5729,171.733 80.5,170.5C 79.8592,169.518 79.1925,168.518 78.5,167.5C 78.8333,167.167 79.1667,166.833 79.5,166.5C 80.914,167.624 82.414,168.624 84,169.5C 85.2692,168.095 85.7692,166.429 85.5,164.5C 81.52,150.58 77.8533,136.58 74.5,122.5C 76.4632,121.18 78.4632,119.846 80.5,118.5 Z"/></g>
<g><path style="opacity:1" fill="#31ab64" d="M 101.5,161.5 C 101.167,161.5 100.833,161.5 100.5,161.5C 98.5714,156.068 96.2381,150.735 93.5,145.5C 96.4423,145.544 98.609,147.211 100,150.5C 100.667,147.833 100.667,145.167 100,142.5C 95.4996,132.252 96.4996,131.919 103,141.5C 103.713,148.273 103.213,154.94 101.5,161.5 Z"/></g>
<g><path style="opacity:1" fill="#556e63" d="M 44.5,148.5 C 44.8333,148.5 45.1667,148.5 45.5,148.5C 45.2011,150.604 45.5344,152.604 46.5,154.5C 48.4753,155.275 49.3087,156.609 49,158.5C 46.2575,154.643 44.9242,154.643 45,158.5C 43.5341,156.675 41.7008,156.175 39.5,157C 40.9561,157.423 41.4561,158.256 41,159.5C 36.3035,158.086 35.8035,158.586 39.5,161C 37.7725,160.474 36.1059,160.641 34.5,161.5C 34.4431,160.391 34.1098,159.391 33.5,158.5C 33.5,158.167 33.5,157.833 33.5,157.5C 36.9878,157.094 40.3211,156.094 43.5,154.5C 44.4656,152.604 44.7989,150.604 44.5,148.5 Z"/></g>
<g><path style="opacity:1" fill="#727874" d="M 118.5,161.5 C 117.957,161.44 117.624,161.107 117.5,160.5C 118.665,159.416 119.998,158.583 121.5,158C 119.833,157.333 118.167,157.333 116.5,158C 115.497,159.546 114.497,159.713 113.5,158.5C 115.259,157.129 117.259,156.129 119.5,155.5C 121.63,156.467 123.63,157.634 125.5,159C 122.809,159.156 120.476,159.989 118.5,161.5 Z"/></g>
<g><path style="opacity:1" fill="#093125" d="M 159.5,143.5 C 160.222,143.918 160.722,144.584 161,145.5C 161.167,148.333 161.333,151.167 161.5,154C 161.964,158.966 160.964,163.466 158.5,167.5C 158.873,164.426 159.539,161.426 160.5,158.5C 160.5,155.833 160.5,153.167 160.5,150.5C 160.007,148.194 159.674,145.861 159.5,143.5 Z"/></g>
<g><path style="opacity:1" fill="#28a661" d="M 33.5,158.5 C 34.1098,159.391 34.4431,160.391 34.5,161.5C 34.1107,164.553 34.7773,167.22 36.5,169.5C 37.5233,171.846 38.5233,174.179 39.5,176.5C 34.7035,176.293 30.5368,174.626 27,171.5C 26.3333,170.5 26.3333,169.5 27,168.5C 28.6477,167.283 30.481,166.45 32.5,166C 28.5991,163.223 24.5991,160.723 20.5,158.5C 21.1709,157.054 22.3376,156.388 24,156.5C 27.1991,157.106 30.3657,157.773 33.5,158.5 Z"/></g>
<g><path style="opacity:1" fill="#5da16e" d="M 100.5,161.5 C 100.833,161.5 101.167,161.5 101.5,161.5C 101.5,162.167 101.5,162.833 101.5,163.5C 100.894,166.916 101.894,169.582 104.5,171.5C 107.589,168.544 109.256,169.211 109.5,173.5C 111.288,173.215 112.955,173.548 114.5,174.5C 114.291,175.086 113.957,175.586 113.5,176C 115.037,177.11 115.703,178.61 115.5,180.5C 114.833,180.5 114.167,180.5 113.5,180.5C 114.66,178.797 113.993,178.131 111.5,178.5C 111.5,177.5 111.5,176.5 111.5,175.5C 110.167,175.5 108.833,175.5 107.5,175.5C 107.62,172.795 106.62,172.128 104.5,173.5C 103.378,172.37 102.044,171.703 100.5,171.5C 100.5,168.167 100.5,164.833 100.5,161.5 Z"/></g>
<g><path style="opacity:1" fill="#cba29c" d="M 101.5,163.5 C 101.833,163.5 102.167,163.5 102.5,163.5C 102.34,165.199 102.506,166.866 103,168.5C 103.464,167.906 103.631,167.239 103.5,166.5C 108.852,163.738 114.186,163.904 119.5,167C 124.459,170.4 126.459,174.9 125.5,180.5C 122.167,180.5 118.833,180.5 115.5,180.5C 115.703,178.61 115.037,177.11 113.5,176C 113.957,175.586 114.291,175.086 114.5,174.5C 112.955,173.548 111.288,173.215 109.5,173.5C 109.256,169.211 107.589,168.544 104.5,171.5C 101.894,169.582 100.894,166.916 101.5,163.5 Z"/></g>
<g><path style="opacity:1" fill="#cd9c99" d="M 62.5,177.5 C 63.1667,178.167 63.8333,178.833 64.5,179.5C 57.825,179.666 51.1583,179.5 44.5,179C 42.8068,178.153 41.1401,177.32 39.5,176.5C 38.5233,174.179 37.5233,171.846 36.5,169.5C 37.0283,168.279 37.695,167.113 38.5,166C 50.6964,161.023 58.6964,164.856 62.5,177.5 Z"/></g>
<g><path style="opacity:1" fill="#1f2c29" d="M 77.5,159.5 C 79.8584,161.678 82.5251,163.345 85.5,164.5C 85.7692,166.429 85.2692,168.095 84,169.5C 82.414,168.624 80.914,167.624 79.5,166.5C 79.1667,166.833 78.8333,167.167 78.5,167.5C 79.1925,168.518 79.8592,169.518 80.5,170.5C 77.9723,171.166 75.3056,171.832 72.5,172.5C 74.1128,173.427 75.7795,174.261 77.5,175C 75.1209,175.716 73.1209,176.883 71.5,178.5C 69.283,179.369 66.9496,179.702 64.5,179.5C 63.8333,178.833 63.1667,178.167 62.5,177.5C 64.8568,177.663 67.1902,177.497 69.5,177C 70.1667,175 70.8333,173 71.5,171C 73.8333,170.667 76.1667,170.333 78.5,170C 77.5939,168.301 77.2606,166.467 77.5,164.5C 78.552,164.649 79.552,164.483 80.5,164C 78.8588,162.871 77.8588,161.371 77.5,159.5 Z"/></g>
<g><path style="opacity:1" fill="#288552" d="M 80.5,170.5 C 83.5729,171.733 83.9062,173.233 81.5,175C 81.8333,175.333 82.1667,175.667 82.5,176C 80.8333,176.333 79.1667,176.667 77.5,177C 76.7476,177.671 76.4142,178.504 76.5,179.5C 74.5853,179.784 72.9187,179.451 71.5,178.5C 73.1209,176.883 75.1209,175.716 77.5,175C 75.7795,174.261 74.1128,173.427 72.5,172.5C 75.3056,171.832 77.9723,171.166 80.5,170.5 Z"/></g>
</svg>
